<svg xmlns="http://www.w3.org/2000/svg" viewBox="0 0 1000 1000"><path fill="#29d8f6" d="m768.407 332.889 45.666-79.63 24.667-42.148-45.667-79.63v-1.851H549.111l91.37 159.333 25.555 43.926zm-503.444 534.74 274.073-477.963 33.815-58.592-91.37-159.333-25.556-41.186H70.37l-45.74 79.63L0 252.37 45.667 332v1.852h292.37L109.63 732.11l-31.963 56.778 45.666 79.63v1.851h141.63m381.925-2.74h139.778l182.74-318.63 31.963-54.962-45.666-79.63v-1.852h-140.74l-91.334 159.333-6.407 11.89-91.37-159.334-6.371-11.889-91.37 159.333-25.593 43.926 137.037 239z"/></svg>