<svg xmlns="http://www.w3.org/2000/svg" viewBox="0 0 1000 1000"><g transform="scale(3.3333)"><circle cx="150" cy="150" r="99.922" fill="#fff"/><path fill="#d50014" d="M150 1.74C68.409 1.74 1.74 68.41 1.74 150S68.41 298.26 150 298.26h148.26V150C298.26 68.409 231.59 1.74 150 1.74m0 247.52c-54.79 0-99.26-44.47-99.26-99.26S95.21 50.74 150 50.74s99.26 44.47 99.26 99.26-44.47 99.26-99.26 99.26"/><path fill="#d50014" d="M161.388 70.076c-10.662 0-19.42 7.866-19.42 17.67s8.758 17.67 19.42 17.67 19.42-7.867 19.42-17.67-8.758-17.67-19.42-17.67m45.346 24.554c-5.402 2.771-11.53 6.895-18.224 11.978-25.943 19.766-60.027 54.218-80.344 80.33l-1.352 1.768c-5.114 6.69-9.267 12.762-12.098 18.006l.2.2c30.826 30.537 81.213 30.431 111.918-.273 30.783-30.784 30.8-81.352.04-112.152ZM87.837 142.216c-9.803 0-17.67 8.758-17.67 19.42s7.867 19.42 17.67 19.42 17.67-8.758 17.67-19.42-7.866-19.42-17.67-19.42"/></g></svg>