<svg xmlns="http://www.w3.org/2000/svg" viewBox="0 0 1000 1000"><path fill="#271F3E" d="M488.188 125.589q2.362 0 7.874-.787 14.173-.788 21.26 0 11.81 0 20.472 3.937l11.811 6.299q20.473 11.023 32.284 14.173 3.937 7.087 16.535 18.11t16.535 18.11q14.174 22.048 20.473 36.22 10.236 19.686 13.386 38.583 3.937 25.985 19.685 53.544 11.023 21.26 31.496 48.818 5.511 12.599 7.874 29.922 1.574 10.236 3.15 30.708.787 25.984 3.149 38.583l9.449 22.834q11.023 25.985 18.11 38.583 3.15 6.3 10.63 3.937t9.055-8.661q1.575-10.237 0-23.622-.788-7.874-3.937-22.835-5.512-25.984-4.725-38.583.788-6.299 0-18.11-1.574-18.11 1.575-26.771 4.725-7.087 13.386-21.26 10.236-17.323 16.535-25.197 10.237-16.535 29.134-24.803t38.583-6.693q5.512 7.874 18.897 20.472l11.811 11.811q7.874 12.599 28.347 35.433l11.023 12.599q6.3 8.661 14.961 28.346l3.15 6.3q6.299 11.023 14.96 33.858 7.087 19.685 11.811 29.133 2.362 6.3 7.874 19.685 7.087 17.323 10.236 26.772 3.937 14.96 3.937 27.559 2.363 7.874 3.937 23.622l1.575 8.661q3.937 14.174 4.725 21.26.787 12.599-3.937 21.26-6.3 14.173-19.685 27.559-9.45 9.449-26.772 22.047l-20.472 16.536q-34.646 28.346-54.331 39.37-28.346 18.11-51.181 28.346-6.3 3.15-17.323 11.024-13.386 11.023-22.047 13.385-3.15 2.363-8.661 7.874t-8.662 7.874q-5.512 3.937-11.023 5.118t-12.599-.393q-3.937-.788-12.992-3.937t-13.78-3.15q-8.66-1.575-14.96 2.362-12.598 7.087-37.795 18.11-51.181 33.859-113.386 47.245-16.535-.788-50.393.393t-51.181 1.181q-7.087-3.937-22.441-5.905t-22.441-5.118q-10.236-2.362-21.26-7.874l-18.898-11.811q-18.11-11.024-27.952-15.355t-28.74-17.716l-3.15-2.362q-4.724-3.15-11.811-11.811-10.236-10.236-16.535-14.173-5.512 0-11.811 2.362-3.937 1.575-10.237 5.512-11.81 7.086-18.897 7.874-9.449 1.574-28.347 1.574-4.724-4.724-12.992-15.748t-12.992-16.535q-7.874-7.874-16.535-11.811l-15.748-11.024q-32.284-20.472-44.882-33.858-14.96-16.535-33.07-27.559-10.237-8.661-19.686-22.047-6.299-7.874-17.323-24.41l-8.661-12.598Q1.575 596.454 4.724 566.533L6.3 543.698q1.575-24.409 2.362-37.007 2.363-21.26 6.3-37.008 11.023-28.347 32.283-59.055 12.598-18.898 40.945-54.33 12.598-18.111 29.134-27.56 19.685-11.023 38.582-6.299 18.11 8.661 29.134 31.496 1.575 3.937 6.3 11.811 7.873 12.598 8.66 20.472 3.938 21.26 4.725 35.433.787 20.473-1.575 36.22-12.598 44.095-9.449 76.379 0 8.661 7.48 14.96t16.142 3.937q6.3-1.575 11.024-7.874 3.15-3.15 7.087-11.81l3.15-7.087q6.298-14.961 25.196-41.733l1.575-3.15q10.236-14.172 22.047-46.456l9.449-23.622q4.724-11.81 7.086-37.008 1.575-14.173 3.15-21.26 1.575-14.173.787-43.306-.787-33.859 1.575-50.394 2.362-5.512 5.512-17.323 5.512-19.685 10.236-28.346 6.3-7.874 20.079-21.26t19.685-20.866 24.803-16.93l25.197-9.448q23.622-9.449 36.22-13.386 19.685-5.512 37.008-6.299"/></svg>
