<?xml version="1.0" standalone="no"?>
<!DOCTYPE svg PUBLIC "-//W3C//DTD SVG 20010904//EN"
 "http://www.w3.org/TR/2001/REC-SVG-20010904/DTD/svg10.dtd">
<svg version="1.0" xmlns="http://www.w3.org/2000/svg"
 width="112.000000pt" height="112.000000pt" viewBox="0 0 112.000000 112.000000"
 preserveAspectRatio="xMidYMid meet">
<metadata>
Created by potrace 1.14, written by Peter Selinger 2001-2017
</metadata>
<g transform="translate(0.000000,112.000000) scale(0.100000,-0.100000)"
fill="#000000" stroke="none">
<path d="M363 1089 c-36 -40 -155 -269 -149 -286 3 -7 -17 -36 -44 -64 -28
-29 -50 -56 -50 -61 0 -4 0 -10 0 -13 0 -3 -6 -18 -14 -34 -29 -55 -37 -151
-17 -190 9 -15 1 -28 -39 -72 l-50 -54 0 -158 0 -157 550 0 c423 0 551 3 557
13 12 19 15 509 3 502 -6 -3 -10 -1 -10 4 0 6 4 11 9 11 5 0 9 13 9 30 -1 18
-5 27 -12 23 -6 -3 -5 0 2 8 18 20 14 39 -9 39 -11 0 -17 -5 -14 -10 4 -6 11
-7 17 -4 7 4 8 2 4 -4 -4 -7 -14 -12 -22 -12 -14 0 -13 -2 0 -16 9 -8 16 -21
16 -27 0 -8 -3 -7 -9 2 -6 9 -11 10 -15 2 -4 -6 -12 -9 -17 -6 -5 4 -9 1 -9
-4 0 -16 -14 -13 -38 8 l-22 18 25 29 c30 35 48 81 34 89 -5 4 -9 13 -9 21 0
9 -24 40 -52 69 -68 69 -78 82 -78 95 0 5 -4 10 -10 10 -5 0 -10 4 -10 9 0 9
-59 110 -70 121 -3 3 -23 26 -44 53 l-38 47 -174 0 -174 0 -27 -31z m712 -622
c0 -7 6 -13 13 -13 23 -3 24 -4 13 -17 -6 -8 -8 -17 -5 -20 4 -4 -4 -4 -17 -1
-13 3 -29 6 -36 6 -6 1 -14 10 -16 20 -3 10 -1 16 4 12 5 -3 9 1 9 8 0 10 3 9
9 -2 6 -8 7 -18 5 -22 -3 -4 0 -8 6 -8 7 0 9 12 6 31 -2 17 -2 28 2 24 4 -4 7
-12 7 -18z m-52 -47 c3 -13 1 -18 -6 -13 -18 11 -47 11 -54 0 -3 -6 -1 -7 5
-3 8 5 10 2 6 -8 -3 -9 -9 -15 -12 -15 -21 3 -52 -15 -48 -27 3 -8 1 -14 -4
-14 -15 0 -12 36 5 50 8 7 12 17 8 23 -4 6 -1 7 6 3 7 -5 10 -15 7 -23 -4 -8
-1 -11 5 -8 6 4 8 13 5 21 -6 17 31 35 53 26 10 -4 12 -1 6 8 -5 8 -4 11 2 7
6 -4 13 -16 16 -27z"/>
<path d="M1079 433 c-13 -16 -12 -17 4 -4 16 13 21 21 13 21 -2 0 -10 -8 -17
-17z"/>
</g>
</svg>
